<svg width="64" height="64" viewBox="0 0 64 64" fill="none" xmlns="http://www.w3.org/2000/svg">
<rect width="64" height="64" fill="#015AFF"/>
<path d="M51.7333 32C51.7333 21.1016 42.8984 12.2667 32 12.2667C21.1016 12.2667 12.2667 21.1016 12.2667 32C12.2667 42.8984 21.1016 51.7333 32 51.7333V56C18.7452 56 8 45.2548 8 32C8 18.7452 18.7452 8 32 8C45.2548 8 56 18.7452 56 32C56 45.2548 45.2548 56 32 56V51.7333C42.8984 51.7333 51.7333 42.8984 51.7333 32Z" fill="white"/>
<path d="M19.0571 14.0071L22.6755 11.7461L45.7093 48.608L42.091 50.869L19.0571 14.0071Z" fill="white"/>
<path d="M41.3333 19.6C43.9482 20.9074 45.6 23.5801 45.6 26.5036V51.6H41.3333V19.6Z" fill="white"/>
<path d="M18.6667 12.1333H22.9333V44.1333C20.3184 42.8259 18.6667 40.1533 18.6667 37.2297V12.1333Z" fill="white"/>
</svg>
