<svg width="110" height="22" viewBox="0 0 110 22" fill="none" xmlns="http://www.w3.org/2000/svg">
<rect width="109.04" height="22" rx="4" fill="#FEF9F6"/>
<g clip-path="url(#clip0_2003_500)">
<mask id="mask0_2003_500" style="mask-type:luminance" maskUnits="userSpaceOnUse" x="3" y="3" width="16" height="16">
<path d="M19 3H3V19H19V3Z" fill="white"/>
</mask>
<g mask="url(#mask0_2003_500)">
<path d="M19 3H3V19H19V3Z" fill="#11253C"/>
<mask id="mask1_2003_500" style="mask-type:luminance" maskUnits="userSpaceOnUse" x="3" y="3" width="16" height="16">
<path d="M19 3H3V19H19V3Z" fill="white"/>
</mask>
<g mask="url(#mask1_2003_500)">
<path d="M19.0001 2.99998H3.00006V19H19.0001V2.99998Z" fill="url(#paint0_linear_2003_500)"/>
<path d="M12.6868 -1.27793C13.1565 -1.6915 13.742 -1.21605 13.5581 -0.714927C12.8911 0.502825 12.1045 1.8411 11.352 3.2775C10.6358 4.64447 9.89135 6.0746 9.14452 7.5131C9.64477 7.16427 10.1239 6.97255 10.5913 6.87417C11.6435 6.60945 12.7663 7.0649 12.7746 7.06802C13.364 7.3446 13.9942 7.93545 13.999 8.92815C14.0021 9.63085 13.8276 10.3369 13.0322 11.1481C12.065 12.0945 10.6193 12.8672 7.54955 13.3278C7.20337 14.3353 7.07967 15.1439 7.40527 15.664C7.73875 16.1968 8.2896 16.5766 8.93725 16.7968C9.70502 17.0577 10.5667 17.1552 11.3345 17.1488C12.3661 17.1402 13.5888 16.8957 14.6545 16.3754C16.3671 15.6133 17.9729 14.6796 17.9729 14.6796C18.4058 14.7399 18.5247 14.9885 18.405 15.3798C18.405 15.3798 14.144 18.9895 11.0137 19.0155C8.25457 19.1105 6.45162 18.2816 5.39111 16.5878C5.17304 16.2395 5.06097 15.8756 5.03076 15.4662C2.84687 19.6955 1.20146 22.8748 1.06933 23.0119C1.05619 23.0229 1.04156 23.033 1.0271 23.0419C0.608176 23.2875 0.066574 23.0325 0.140124 22.4962C0.140124 22.4962 2.04178 16.9301 5.16113 10.9457C6.26765 8.82312 7.50075 6.61662 8.76197 4.58121C10.017 2.40637 11.5504 0.227398 12.6868 -1.27793ZM12.0115 8.91007C11.2822 8.7217 10.1029 8.83572 8.33032 11.8571C10.4023 11.2666 11.4041 10.4943 11.9177 9.7487C12.0689 9.52962 12.1369 9.3123 12.136 9.1254C12.1355 9.05037 12.1074 8.94632 12.0115 8.91007Z" fill="#FEF9F6"/>
</g>
</g>
</g>
<path d="M23 14.696V8.396H23.882L26.105 12.797L28.337 8.396H29.228V14.696H28.472V9.746L26.393 13.814H25.826L23.756 9.764V14.696H23Z" fill="#1D1C1B"/>
<path d="M31.5484 14.804C31.1824 14.804 30.8764 14.741 30.6304 14.615C30.3844 14.483 30.2014 14.312 30.0814 14.102C29.9614 13.886 29.9014 13.652 29.9014 13.4C29.9014 13.094 29.9794 12.836 30.1354 12.626C30.2974 12.41 30.5224 12.248 30.8104 12.14C31.1044 12.026 31.4494 11.969 31.8454 11.969H33.0424C33.0424 11.687 32.9974 11.453 32.9074 11.267C32.8234 11.075 32.6974 10.931 32.5294 10.835C32.3674 10.739 32.1634 10.691 31.9174 10.691C31.6294 10.691 31.3804 10.763 31.1704 10.907C30.9604 11.051 30.8314 11.264 30.7834 11.546H30.0094C30.0454 11.222 30.1534 10.952 30.3334 10.736C30.5194 10.514 30.7534 10.346 31.0354 10.232C31.3174 10.112 31.6114 10.052 31.9174 10.052C32.3374 10.052 32.6854 10.13 32.9614 10.286C33.2434 10.436 33.4534 10.649 33.5914 10.925C33.7294 11.195 33.7984 11.516 33.7984 11.888V14.696H33.1234L33.0784 13.895C33.0184 14.021 32.9404 14.141 32.8444 14.255C32.7544 14.363 32.6464 14.459 32.5204 14.543C32.3944 14.621 32.2504 14.684 32.0884 14.732C31.9324 14.78 31.7524 14.804 31.5484 14.804ZM31.6654 14.165C31.8754 14.165 32.0644 14.123 32.2324 14.039C32.4064 13.949 32.5534 13.829 32.6734 13.679C32.7934 13.523 32.8834 13.352 32.9434 13.166C33.0094 12.98 33.0424 12.785 33.0424 12.581V12.554H31.9084C31.6144 12.554 31.3774 12.59 31.1974 12.662C31.0174 12.728 30.8884 12.824 30.8104 12.95C30.7324 13.07 30.6934 13.208 30.6934 13.364C30.6934 13.526 30.7294 13.667 30.8014 13.787C30.8794 13.907 30.9904 14 31.1344 14.066C31.2844 14.132 31.4614 14.165 31.6654 14.165Z" fill="#1D1C1B"/>
<path d="M36.5159 14.804C36.0779 14.804 35.6939 14.702 35.3639 14.498C35.0339 14.288 34.7789 14.003 34.5989 13.643C34.4189 13.283 34.3289 12.875 34.3289 12.419C34.3289 11.963 34.4189 11.558 34.5989 11.204C34.7789 10.844 35.0339 10.562 35.3639 10.358C35.6999 10.154 36.0869 10.052 36.5249 10.052C36.8969 10.052 37.2209 10.127 37.4969 10.277C37.7789 10.427 37.9949 10.637 38.1449 10.907V8.216H38.9009V14.696H38.2169L38.1539 13.949C38.0579 14.099 37.9349 14.24 37.7849 14.372C37.6349 14.498 37.4549 14.603 37.2449 14.687C37.0349 14.765 36.7919 14.804 36.5159 14.804ZM36.6059 14.147C36.9059 14.147 37.1699 14.075 37.3979 13.931C37.6259 13.787 37.8029 13.589 37.9289 13.337C38.0549 13.079 38.1179 12.776 38.1179 12.428C38.1179 12.086 38.0549 11.786 37.9289 11.528C37.8029 11.27 37.6259 11.069 37.3979 10.925C37.1699 10.781 36.9059 10.709 36.6059 10.709C36.3119 10.709 36.0509 10.781 35.8229 10.925C35.5949 11.069 35.4179 11.27 35.2919 11.528C35.1659 11.786 35.1029 12.086 35.1029 12.428C35.1029 12.776 35.1659 13.079 35.2919 13.337C35.4179 13.589 35.5949 13.787 35.8229 13.931C36.0509 14.075 36.3119 14.147 36.6059 14.147Z" fill="#1D1C1B"/>
<path d="M41.6995 14.804C41.2735 14.804 40.8955 14.705 40.5655 14.507C40.2415 14.309 39.9865 14.033 39.8005 13.679C39.6145 13.319 39.5215 12.902 39.5215 12.428C39.5215 11.948 39.6115 11.531 39.7915 11.177C39.9775 10.823 40.2355 10.547 40.5655 10.349C40.9015 10.151 41.2855 10.052 41.7175 10.052C42.1615 10.052 42.5365 10.151 42.8425 10.349C43.1545 10.547 43.3915 10.808 43.5535 11.132C43.7215 11.45 43.8055 11.801 43.8055 12.185C43.8055 12.245 43.8055 12.308 43.8055 12.374C43.8055 12.44 43.8025 12.515 43.7965 12.599H40.0885V12.014H43.0675C43.0495 11.6 42.9115 11.276 42.6535 11.042C42.4015 10.808 42.0835 10.691 41.6995 10.691C41.4415 10.691 41.2015 10.751 40.9795 10.871C40.7635 10.985 40.5895 11.156 40.4575 11.384C40.3255 11.606 40.2595 11.885 40.2595 12.221V12.473C40.2595 12.845 40.3255 13.157 40.4575 13.409C40.5955 13.661 40.7725 13.85 40.9885 13.976C41.2105 14.102 41.4475 14.165 41.6995 14.165C42.0175 14.165 42.2785 14.096 42.4825 13.958C42.6925 13.814 42.8425 13.622 42.9325 13.382H43.6795C43.6075 13.652 43.4815 13.895 43.3015 14.111C43.1215 14.327 42.8965 14.498 42.6265 14.624C42.3625 14.744 42.0535 14.804 41.6995 14.804Z" fill="#1D1C1B"/>
<path d="M46.3613 14.696V8.396H48.5753C49.0193 8.396 49.3853 8.468 49.6733 8.612C49.9673 8.75 50.1863 8.942 50.3303 9.188C50.4743 9.428 50.5463 9.698 50.5463 9.998C50.5463 10.322 50.4743 10.592 50.3303 10.808C50.1923 11.024 50.0093 11.189 49.7813 11.303C49.5593 11.417 49.3223 11.486 49.0703 11.51L49.1963 11.42C49.4663 11.426 49.7153 11.498 49.9433 11.636C50.1713 11.774 50.3513 11.96 50.4833 12.194C50.6213 12.428 50.6903 12.689 50.6903 12.977C50.6903 13.295 50.6123 13.586 50.4563 13.85C50.3003 14.108 50.0693 14.315 49.7633 14.471C49.4633 14.621 49.0913 14.696 48.6473 14.696H46.3613ZM47.1173 14.066H48.5663C48.9923 14.066 49.3223 13.967 49.5563 13.769C49.7963 13.565 49.9163 13.283 49.9163 12.923C49.9163 12.569 49.7933 12.287 49.5473 12.077C49.3073 11.861 48.9743 11.753 48.5483 11.753H47.1173V14.066ZM47.1173 11.15H48.5213C48.9293 11.15 49.2383 11.054 49.4483 10.862C49.6643 10.67 49.7723 10.409 49.7723 10.079C49.7723 9.761 49.6643 9.506 49.4483 9.314C49.2383 9.122 48.9203 9.026 48.4943 9.026H47.1173V11.15Z" fill="#1D1C1B"/>
<path d="M51.7842 16.676L52.8912 14.192H52.6302L50.8482 10.16H51.6672L53.1432 13.625L54.6912 10.16H55.4742L52.5762 16.676H51.7842Z" fill="#1D1C1B"/>
<path d="M57.7898 14.696V8.396H61.8578V9.269H58.8698V11.078H61.5878V11.933H58.8698V13.823H61.8578V14.696H57.7898Z" fill="#1D1C1B"/>
<path d="M62.5069 14.696V10.16H63.4699L63.5689 11.006C63.6769 10.808 63.8119 10.64 63.9739 10.502C64.1359 10.358 64.3249 10.247 64.5409 10.169C64.7629 10.091 65.0059 10.052 65.2699 10.052V11.195H64.8919C64.7119 11.195 64.5409 11.219 64.3789 11.267C64.2169 11.309 64.0759 11.381 63.9559 11.483C63.8419 11.579 63.7519 11.714 63.6859 11.888C63.6199 12.056 63.5869 12.269 63.5869 12.527V14.696H62.5069Z" fill="#1D1C1B"/>
<path d="M65.6341 14.696V10.16H66.5971L66.6961 11.006C66.8041 10.808 66.9391 10.64 67.1011 10.502C67.2631 10.358 67.4521 10.247 67.6681 10.169C67.8901 10.091 68.1331 10.052 68.3971 10.052V11.195H68.0191C67.8391 11.195 67.6681 11.219 67.5061 11.267C67.3441 11.309 67.2031 11.381 67.0831 11.483C66.9691 11.579 66.8791 11.714 66.8131 11.888C66.7471 12.056 66.7141 12.269 66.7141 12.527V14.696H65.6341Z" fill="#1D1C1B"/>
<path d="M70.7885 14.804C70.3385 14.804 69.9425 14.708 69.6005 14.516C69.2585 14.318 68.9915 14.042 68.7995 13.688C68.6075 13.334 68.5115 12.926 68.5115 12.464C68.5115 11.984 68.6045 11.564 68.7905 11.204C68.9825 10.844 69.2495 10.562 69.5915 10.358C69.9395 10.154 70.3415 10.052 70.7975 10.052C71.2415 10.052 71.6285 10.151 71.9585 10.349C72.2885 10.547 72.5435 10.814 72.7235 11.15C72.9035 11.48 72.9935 11.852 72.9935 12.266C72.9935 12.326 72.9935 12.392 72.9935 12.464C72.9935 12.536 72.9875 12.611 72.9755 12.689H69.2855V11.996H71.9045C71.8925 11.666 71.7815 11.408 71.5715 11.222C71.3615 11.03 71.1005 10.934 70.7885 10.934C70.5665 10.934 70.3625 10.985 70.1765 11.087C69.9905 11.189 69.8435 11.342 69.7355 11.546C69.6275 11.744 69.5735 11.996 69.5735 12.302V12.563C69.5735 12.845 69.6245 13.088 69.7265 13.292C69.8345 13.496 69.9785 13.652 70.1585 13.76C70.3445 13.862 70.5515 13.913 70.7795 13.913C71.0315 13.913 71.2385 13.859 71.4005 13.751C71.5685 13.643 71.6915 13.499 71.7695 13.319H72.8675C72.7835 13.601 72.6455 13.856 72.4535 14.084C72.2615 14.306 72.0245 14.483 71.7425 14.615C71.4605 14.741 71.1425 14.804 70.7885 14.804Z" fill="#1D1C1B"/>
<path d="M74.91 14.696L77.214 8.396H78.42L80.724 14.696H79.581L77.808 9.656L76.035 14.696H74.91ZM75.936 13.211L76.224 12.356H79.329L79.617 13.211H75.936Z" fill="#1D1C1B"/>
<path d="M83.0126 16.784C82.5866 16.784 82.2116 16.73 81.8876 16.622C81.5696 16.52 81.3206 16.361 81.1406 16.145C80.9666 15.935 80.8796 15.671 80.8796 15.353C80.8796 15.167 80.9246 14.984 81.0146 14.804C81.1106 14.63 81.2516 14.468 81.4376 14.318C81.6296 14.162 81.8726 14.027 82.1666 13.913L82.6436 14.435C82.3556 14.537 82.1546 14.66 82.0406 14.804C81.9266 14.948 81.8696 15.095 81.8696 15.245C81.8696 15.401 81.9176 15.53 82.0136 15.632C82.1156 15.74 82.2506 15.821 82.4186 15.875C82.5926 15.929 82.7876 15.956 83.0036 15.956C83.2136 15.956 83.3966 15.926 83.5526 15.866C83.7086 15.812 83.8286 15.734 83.9126 15.632C84.0026 15.53 84.0476 15.407 84.0476 15.263C84.0476 15.083 83.9846 14.936 83.8586 14.822C83.7326 14.714 83.4836 14.648 83.1116 14.624C82.7936 14.6 82.5146 14.567 82.2746 14.525C82.0346 14.477 81.8276 14.423 81.6536 14.363C81.4856 14.303 81.3416 14.237 81.2216 14.165C81.1016 14.087 81.0026 14.009 80.9246 13.931V13.724L81.8696 12.734L82.6706 12.995L81.6086 14.03L81.8876 13.508C81.9476 13.55 82.0076 13.589 82.0676 13.625C82.1336 13.661 82.2146 13.694 82.3106 13.724C82.4126 13.748 82.5446 13.772 82.7066 13.796C82.8686 13.82 83.0786 13.844 83.3366 13.868C83.7386 13.898 84.0656 13.97 84.3176 14.084C84.5696 14.198 84.7556 14.351 84.8756 14.543C84.9956 14.735 85.0556 14.966 85.0556 15.236C85.0556 15.5 84.9806 15.749 84.8306 15.983C84.6866 16.217 84.4646 16.409 84.1646 16.559C83.8646 16.709 83.4806 16.784 83.0126 16.784ZM83.0126 13.337C82.6346 13.337 82.3076 13.265 82.0316 13.121C81.7616 12.971 81.5546 12.773 81.4106 12.527C81.2666 12.275 81.1946 11.999 81.1946 11.699C81.1946 11.393 81.2666 11.117 81.4106 10.871C81.5546 10.625 81.7616 10.427 82.0316 10.277C82.3076 10.127 82.6346 10.052 83.0126 10.052C83.3906 10.052 83.7146 10.127 83.9846 10.277C84.2546 10.427 84.4616 10.625 84.6056 10.871C84.7496 11.117 84.8216 11.393 84.8216 11.699C84.8216 11.999 84.7496 12.275 84.6056 12.527C84.4616 12.773 84.2546 12.971 83.9846 13.121C83.7146 13.265 83.3906 13.337 83.0126 13.337ZM83.0126 12.5C83.2706 12.5 83.4776 12.431 83.6336 12.293C83.7896 12.155 83.8676 11.957 83.8676 11.699C83.8676 11.441 83.7896 11.246 83.6336 11.114C83.4776 10.976 83.2706 10.907 83.0126 10.907C82.7546 10.907 82.5446 10.976 82.3826 11.114C82.2206 11.246 82.1396 11.441 82.1396 11.699C82.1396 11.957 82.2206 12.155 82.3826 12.293C82.5446 12.431 82.7546 12.5 83.0126 12.5ZM83.7596 10.952L83.5526 10.16H85.4156V10.835L83.7596 10.952Z" fill="#1D1C1B"/>
<path d="M87.8674 14.804C87.4174 14.804 87.0214 14.708 86.6794 14.516C86.3374 14.318 86.0704 14.042 85.8784 13.688C85.6864 13.334 85.5904 12.926 85.5904 12.464C85.5904 11.984 85.6834 11.564 85.8694 11.204C86.0614 10.844 86.3284 10.562 86.6704 10.358C87.0184 10.154 87.4204 10.052 87.8764 10.052C88.3204 10.052 88.7074 10.151 89.0374 10.349C89.3674 10.547 89.6224 10.814 89.8024 11.15C89.9824 11.48 90.0724 11.852 90.0724 12.266C90.0724 12.326 90.0724 12.392 90.0724 12.464C90.0724 12.536 90.0664 12.611 90.0544 12.689H86.3644V11.996H88.9834C88.9714 11.666 88.8604 11.408 88.6504 11.222C88.4404 11.03 88.1794 10.934 87.8674 10.934C87.6454 10.934 87.4414 10.985 87.2554 11.087C87.0694 11.189 86.9224 11.342 86.8144 11.546C86.7064 11.744 86.6524 11.996 86.6524 12.302V12.563C86.6524 12.845 86.7034 13.088 86.8054 13.292C86.9134 13.496 87.0574 13.652 87.2374 13.76C87.4234 13.862 87.6304 13.913 87.8584 13.913C88.1104 13.913 88.3174 13.859 88.4794 13.751C88.6474 13.643 88.7704 13.499 88.8484 13.319H89.9464C89.8624 13.601 89.7244 13.856 89.5324 14.084C89.3404 14.306 89.1034 14.483 88.8214 14.615C88.5394 14.741 88.2214 14.804 87.8674 14.804Z" fill="#1D1C1B"/>
<path d="M90.6196 14.696V10.16H91.5736L91.6546 10.916C91.7926 10.652 91.9906 10.442 92.2486 10.286C92.5066 10.13 92.8126 10.052 93.1666 10.052C93.5326 10.052 93.8446 10.13 94.1026 10.286C94.3606 10.436 94.5586 10.658 94.6966 10.952C94.8406 11.246 94.9126 11.612 94.9126 12.05V14.696H93.8326V12.149C93.8326 11.771 93.7486 11.48 93.5806 11.276C93.4126 11.072 93.1636 10.97 92.8336 10.97C92.6176 10.97 92.4226 11.021 92.2486 11.123C92.0806 11.225 91.9456 11.375 91.8436 11.573C91.7476 11.765 91.6996 11.999 91.6996 12.275V14.696H90.6196Z" fill="#1D1C1B"/>
<path d="M97.7522 14.804C97.3082 14.804 96.9092 14.705 96.5552 14.507C96.2072 14.303 95.9342 14.024 95.7362 13.67C95.5442 13.31 95.4482 12.902 95.4482 12.446C95.4482 11.972 95.5442 11.558 95.7362 11.204C95.9342 10.844 96.2072 10.562 96.5552 10.358C96.9092 10.154 97.3112 10.052 97.7612 10.052C98.3252 10.052 98.7992 10.202 99.1832 10.502C99.5672 10.796 99.8132 11.201 99.9212 11.717H98.7872C98.7272 11.489 98.6012 11.309 98.4092 11.177C98.2232 11.045 98.0012 10.979 97.7432 10.979C97.5212 10.979 97.3172 11.036 97.1312 11.15C96.9512 11.264 96.8072 11.429 96.6992 11.645C96.5972 11.861 96.5462 12.122 96.5462 12.428C96.5462 12.662 96.5762 12.869 96.6362 13.049C96.6962 13.229 96.7802 13.382 96.8882 13.508C97.0022 13.628 97.1312 13.721 97.2752 13.787C97.4192 13.853 97.5752 13.886 97.7432 13.886C97.9172 13.886 98.0732 13.859 98.2112 13.805C98.3552 13.745 98.4752 13.658 98.5712 13.544C98.6732 13.43 98.7452 13.295 98.7872 13.139H99.9212C99.8132 13.643 99.5672 14.048 99.1832 14.354C98.7992 14.654 98.3222 14.804 97.7522 14.804Z" fill="#1D1C1B"/>
<path d="M101.062 16.676L102.169 14.192H101.899L100.09 10.16H101.269L102.619 13.238L103.897 10.16H105.04L102.205 16.676H101.062Z" fill="#1D1C1B"/>
<defs>
<linearGradient id="paint0_linear_2003_500" x1="6.09369e-05" y1="22" x2="26.3667" y2="-4.36669" gradientUnits="userSpaceOnUse">
<stop stop-color="#D9C3AB"/>
<stop offset="0.3209" stop-color="#E85102"/>
<stop offset="0.614539" stop-color="#C10801"/>
<stop offset="0.941062" stop-color="#080B0C"/>
</linearGradient>
<clipPath id="clip0_2003_500">
<rect x="3" y="3" width="16" height="16" rx="2" fill="white"/>
</clipPath>
</defs>
</svg>
