<svg width="64" height="64" viewBox="0 0 64 64" fill="none" xmlns="http://www.w3.org/2000/svg">
<path d="M58.3111 32C58.3111 17.4688 46.5312 5.68889 32 5.68889C17.4688 5.68889 5.68889 17.4688 5.68889 32C5.68889 46.5312 17.4688 58.3111 32 58.3111V64C14.3269 64 0 49.6731 0 32C0 14.3269 14.3269 0 32 0C49.6731 0 64 14.3269 64 32C64 49.6731 49.6731 64 32 64V58.3111C46.5312 58.3111 58.3111 46.5312 58.3111 32Z" fill="currentColor"/>
<path d="M14.7428 8.00951L19.5673 4.99486L50.2791 54.144L45.4546 57.1586L14.7428 8.00951Z" fill="currentColor"/>
<path d="M44.4444 15.4667C47.931 17.2099 50.1333 20.7734 50.1333 24.6715V58.1333H44.4444V15.4667Z" fill="currentColor"/>
<path d="M14.2222 5.51111H19.9111V48.1778C16.4246 46.4345 14.2222 42.871 14.2222 38.973V5.51111Z" fill="currentColor"/>
<path d="M13.7227 12.3857C8.47262 17.2801 5.18848 24.2562 5.18848 32C5.18848 46.6403 16.9234 58.5381 31.5 58.8047V63.4932C14.3336 63.226 0.5 49.23 0.5 32C0.5 21.4174 5.71857 12.0537 13.7227 6.3418V12.3857ZM43.9443 58.6338H48.8232C44.0872 61.6316 38.4975 63.3998 32.5 63.4932V58.8047C36.607 58.7296 40.4875 57.731 43.9443 56.0078V58.6338ZM49.6338 57.6338H45.6387L45.7197 57.583L49.6338 55.1367V57.6338ZM45.0303 57.4238L45.1621 57.6338H44.9443V57.2861L45.0303 57.4238ZM32 0.5C49.397 0.5 63.5 14.603 63.5 32C63.5 42.4241 58.4353 51.6639 50.6338 57.3975V54.5117L50.9678 54.3027L50.7031 53.8789L50.6338 53.7676V51.2744C55.6751 46.3996 58.8115 39.5666 58.8115 32C58.8115 17.1926 46.8074 5.18848 32 5.18848C28.3075 5.18848 24.7891 5.93489 21.5879 7.28516L20.4111 5.40137V5.01074H20.167L19.9912 4.72949L19.7266 4.30566L19.3027 4.57129L18.5996 5.01074H15.75C20.4945 2.14796 26.0547 0.5 32 0.5ZM49.5898 53.9844L45.6133 56.4688L44.9834 55.4609C46.3583 54.6984 47.6588 53.8187 48.8721 52.835L49.5898 53.9844ZM48.3379 51.9805C47.274 52.8514 46.1399 53.6395 44.9443 54.334V46.5488L48.3379 51.9805ZM43.9443 44.9492V53.7969L20.4111 16.1357V8.93164C20.6717 8.80047 20.9346 8.67328 21.2002 8.55078L43.9443 44.9492ZM44.9443 16.3154C47.8395 18.0824 49.6338 21.2408 49.6338 24.6719V50.8457C49.4605 51.0079 49.2842 51.1668 49.1064 51.3242L44.9443 44.6621V16.3154ZM19.4111 16.4238V47.3281C16.5163 45.5611 14.7227 42.4036 14.7227 38.9727V12.8252C15.2393 12.3594 15.775 11.9145 16.3281 11.4912L19.4111 16.4238ZM19.4111 14.5361L17.1367 10.8965C17.8678 10.3806 18.6268 9.90195 19.4111 9.46289V14.5361ZM15.7959 10.6387C15.4305 10.9162 15.073 11.2035 14.7227 11.499V8.9209L15.7959 10.6387ZM19.4111 6.01074V8.32422C18.4389 8.84226 17.5017 9.41721 16.6055 10.0469L15.4316 8.16797L18.8848 6.01074H19.4111ZM20.666 7.69727C20.581 7.73698 20.4956 7.77583 20.4111 7.81641V7.28809L20.666 7.69727ZM16.999 6.01074L14.7227 7.43262V6.01074H16.999Z" stroke="currentColor"/>
</svg>
