<svg width="1376" height="138" viewBox="0 0 1376 138" fill="none" xmlns="http://www.w3.org/2000/svg">
<path d="M125.369 68.8C125.369 37.5579 100.042 12.2311 68.8 12.2311C37.5579 12.2311 12.2311 37.5579 12.2311 68.8C12.2311 100.042 37.5579 125.369 68.8 125.369V137.6C30.8028 137.6 0 106.797 0 68.8C0 30.8028 30.8028 0 68.8 0C106.797 0 137.6 30.8028 137.6 68.8C137.6 106.797 106.797 137.6 68.8 137.6V125.369C100.042 125.369 125.369 100.042 125.369 68.8Z" fill="currentColor"/>
<path d="M31.6971 17.2204L42.0697 10.7389L108.1 116.41L97.7274 122.891L31.6971 17.2204Z" fill="currentColor"/>
<path d="M95.5556 33.2533C103.052 37.0014 107.787 44.6629 107.787 53.0437V124.987H95.5556V33.2533Z" fill="currentColor"/>
<path d="M30.5778 11.8489H42.8089V103.582C35.3129 99.8342 30.5778 92.1727 30.5778 83.7919V11.8489Z" fill="currentColor"/>
<path d="M189.2 109.317V33.0689H200.397L237.842 89.7256V33.0689H249.039V109.317H237.842L200.397 52.6075V109.317H189.2Z" fill="currentColor"/>
<path d="M276.72 110.906C272.495 110.906 268.956 110.129 266.104 108.576C263.252 106.987 261.087 104.905 259.608 102.328C258.164 99.7156 257.443 96.8563 257.443 93.7499C257.443 90.8552 257.953 88.3136 258.974 86.125C259.995 83.9364 261.509 82.0831 263.516 80.5652C265.523 79.012 267.988 77.7589 270.91 76.8058C273.446 76.0645 276.315 75.4114 279.519 74.8466C282.723 74.2818 286.086 73.7523 289.607 73.2581C293.163 72.7639 296.684 72.2697 300.17 71.7755L296.156 73.9994C296.226 69.5163 295.276 66.1981 293.304 64.0448C291.367 61.8562 288.022 60.7619 283.269 60.7619C280.276 60.7619 277.53 61.4679 275.03 62.8799C272.53 64.2566 270.787 66.5511 269.801 69.7634L259.502 66.5864C260.911 61.6797 263.587 57.779 267.53 54.8844C271.509 51.9898 276.79 50.5425 283.375 50.5425C288.48 50.5425 292.917 51.425 296.684 53.19C300.487 54.9197 303.268 57.6731 305.029 61.4502C305.944 63.3211 306.508 65.2979 306.719 67.3806C306.93 69.4633 307.036 71.7049 307.036 74.1053V109.317H297.265V96.2385L299.166 97.9329C296.807 102.31 293.797 105.575 290.135 107.729C286.508 109.847 282.037 110.906 276.72 110.906ZM278.674 101.851C281.808 101.851 284.501 101.304 286.755 100.21C289.008 99.0802 290.822 97.6505 292.195 95.9208C293.568 94.1911 294.466 92.3908 294.888 90.5199C295.487 88.8255 295.821 86.9193 295.892 84.8013C295.998 82.6833 296.05 80.9888 296.05 79.718L299.642 81.0418C296.156 81.5713 292.987 82.0479 290.135 82.4715C287.283 82.8951 284.695 83.3187 282.371 83.7423C280.083 84.1306 278.04 84.6071 276.245 85.1719C274.731 85.7014 273.375 86.3368 272.178 87.0781C271.016 87.8194 270.083 88.7196 269.379 89.7786C268.71 90.8376 268.375 92.126 268.375 93.644C268.375 95.1266 268.745 96.5033 269.484 97.7741C270.224 99.0096 271.351 99.998 272.865 100.739C274.379 101.481 276.315 101.851 278.674 101.851Z" fill="currentColor"/>
<path d="M357.615 109.317V81.2006C357.615 78.9767 357.422 76.6999 357.034 74.3701C356.682 72.005 355.978 69.8163 354.922 67.8042C353.901 65.7921 352.439 64.1683 350.538 62.9328C348.672 61.6973 346.225 61.0796 343.197 61.0796C341.225 61.0796 339.359 61.4149 337.598 62.0856C335.838 62.721 334.289 63.7624 332.951 65.2097C331.648 66.657 330.609 68.5632 329.835 70.9283C329.095 73.2934 328.725 76.1704 328.725 79.5592L321.859 76.9646C321.859 71.7755 322.828 67.2041 324.764 63.2505C326.701 59.2616 329.482 56.1552 333.109 53.9313C336.736 51.7074 341.119 50.5954 346.26 50.5954C350.203 50.5954 353.513 51.2308 356.189 52.5016C358.865 53.7724 361.031 55.4492 362.685 57.5319C364.376 59.5793 365.661 61.8209 366.541 64.2566C367.421 66.6923 368.02 69.075 368.337 71.4049C368.654 73.7347 368.812 75.7821 368.812 77.5471V109.317H357.615ZM317.529 109.317V52.131H327.405V68.6514H328.725V109.317H317.529Z" fill="currentColor"/>
<path d="M403.448 110.906C397.744 110.906 392.797 109.617 388.607 107.04C384.417 104.463 381.178 100.916 378.889 96.3974C376.635 91.8436 375.509 86.6016 375.509 80.6711C375.509 74.7054 376.671 69.4633 378.995 64.9449C381.318 60.3912 384.575 56.8612 388.765 54.3549C392.955 51.8133 397.849 50.5425 403.448 50.5425C409.152 50.5425 414.099 51.8309 418.289 54.4078C422.479 56.9847 425.718 60.5324 428.007 65.0508C430.295 69.5692 431.44 74.776 431.44 80.6711C431.44 86.6369 430.278 91.8966 427.954 96.4503C425.665 100.969 422.426 104.516 418.236 107.093C414.046 109.635 409.117 110.906 403.448 110.906ZM403.448 100.475C408.905 100.475 412.972 98.6389 415.648 94.9677C418.359 91.2612 419.715 86.4957 419.715 80.6711C419.715 74.7054 418.342 69.9399 415.595 66.3746C412.884 62.774 408.835 60.9737 403.448 60.9737C399.751 60.9737 396.705 61.8209 394.311 63.5153C391.917 65.1744 390.138 67.4865 388.977 70.4517C387.815 73.3817 387.234 76.7881 387.234 80.6711C387.234 86.6722 388.607 91.473 391.353 95.0736C394.1 98.6742 398.131 100.475 403.448 100.475Z" fill="currentColor"/>
<path d="M457.855 109.317V33.0689H488.593C489.332 33.0689 490.248 33.1042 491.339 33.1748C492.431 33.2101 493.469 33.316 494.455 33.4925C498.681 34.1632 502.202 35.6105 505.018 37.8344C507.87 40.0583 510.001 42.8647 511.409 46.2535C512.817 49.6423 513.522 53.3841 513.522 57.4789C513.522 63.5506 511.972 68.7926 508.874 73.2052C505.775 77.5824 501.128 80.3181 494.931 81.4124L490.441 81.9419H468.893V109.317H457.855ZM502.325 109.317L487.325 78.2884L498.469 75.4291L514.948 109.317H502.325ZM468.893 71.4578H488.17C488.875 71.4578 489.649 71.4225 490.494 71.3519C491.374 71.2813 492.202 71.1577 492.977 70.9813C495.23 70.4517 497.043 69.481 498.416 68.069C499.79 66.6217 500.776 64.9626 501.374 63.0917C501.973 61.2208 502.272 59.3498 502.272 57.4789C502.272 55.608 501.973 53.7548 501.374 51.9192C500.776 50.0483 499.79 48.4068 498.416 46.9948C497.043 45.5475 495.23 44.5591 492.977 44.0296C492.202 43.8178 491.374 43.6766 490.494 43.606C489.649 43.5354 488.875 43.5001 488.17 43.5001H468.893V71.4578Z" fill="currentColor"/>
<path d="M548.685 110.906C543.016 110.906 538.034 109.67 533.738 107.199C529.478 104.693 526.15 101.216 523.756 96.768C521.397 92.2849 520.217 87.0958 520.217 81.2006C520.217 74.9525 521.379 69.5339 523.703 64.9449C526.062 60.3559 529.337 56.8082 533.527 54.3019C537.717 51.7956 542.593 50.5425 548.157 50.5425C553.966 50.5425 558.913 51.9015 562.998 54.6196C567.082 57.3024 570.128 61.1325 572.135 66.1098C574.177 71.0872 574.987 76.9999 574.564 83.8482H563.526V79.8239C563.455 73.1875 562.188 68.2808 559.723 65.1038C557.294 61.9268 553.579 60.3383 548.579 60.3383C543.051 60.3383 538.896 62.0856 536.115 65.5803C533.333 69.075 531.942 74.123 531.942 80.7241C531.942 87.0075 533.333 91.8789 536.115 95.3384C538.896 98.7625 542.91 100.475 548.157 100.475C551.607 100.475 554.582 99.6979 557.082 98.1447C559.617 96.5562 561.589 94.297 562.998 91.3671L573.825 94.8089C571.606 99.9274 568.244 103.899 563.737 106.723C559.23 109.511 554.213 110.906 548.685 110.906ZM528.351 83.8482V75.2173H569.071V83.8482H528.351Z" fill="currentColor"/>
<path d="M605.057 110.853C598.121 110.853 592.47 109.317 588.104 106.246C583.738 103.175 581.062 98.8507 580.076 93.2733L591.378 91.5259C592.082 94.4912 593.702 96.8386 596.237 98.5683C598.807 100.263 601.994 101.11 605.797 101.11C609.247 101.11 611.941 100.404 613.877 98.9919C615.849 97.5799 616.835 95.6384 616.835 93.1674C616.835 91.7201 616.483 90.5552 615.779 89.6727C615.11 88.7549 613.684 87.89 611.501 87.0781C609.318 86.2662 605.99 85.2602 601.519 84.06C596.624 82.7892 592.734 81.4301 589.847 79.9828C586.995 78.5002 584.952 76.7881 583.72 74.8466C582.523 72.8698 581.924 70.487 581.924 67.6983C581.924 64.2389 582.84 61.2208 584.671 58.6438C586.502 56.0669 589.072 54.0725 592.382 52.6605C595.727 51.2485 599.635 50.5425 604.107 50.5425C608.473 50.5425 612.363 51.2308 615.779 52.6075C619.194 53.9842 621.958 55.9434 624.071 58.485C626.183 60.9913 627.451 63.9389 627.873 67.3277L616.571 69.3927C616.184 66.6393 614.898 64.4684 612.715 62.8799C610.532 61.2914 607.698 60.4265 604.212 60.2853C600.867 60.1441 598.156 60.7089 596.079 61.9797C594.001 63.2152 592.963 64.9273 592.963 67.1159C592.963 68.3867 593.35 69.4633 594.125 70.3458C594.934 71.2284 596.484 72.0756 598.772 72.8875C601.061 73.6994 604.441 74.6701 608.913 75.7997C613.701 77.0352 617.504 78.4119 620.321 79.9298C623.138 81.4124 625.145 83.1951 626.342 85.2778C627.574 87.3252 628.19 89.8139 628.19 92.7438C628.19 98.3918 626.13 102.822 622.011 106.034C617.926 109.247 612.275 110.853 605.057 110.853Z" fill="currentColor"/>
<path d="M669.347 109.317C665.756 110.023 662.235 110.323 658.784 110.217C655.333 110.111 652.253 109.441 649.541 108.205C646.83 106.97 644.788 105.028 643.415 102.381C642.183 100.016 641.514 97.6152 641.408 95.1795C641.338 92.7085 641.302 89.9198 641.302 86.8134V36.2459H652.393V86.2839C652.393 88.5784 652.411 90.5728 652.446 92.2672C652.517 93.9617 652.886 95.3913 653.555 96.5562C654.823 98.7448 656.83 99.998 659.576 100.316C662.358 100.598 665.615 100.475 669.347 99.945V109.317ZM630.37 61.0266V52.131H669.347V61.0266H630.37Z" fill="currentColor"/>
<path d="M700.396 110.906C694.692 110.906 689.745 109.617 685.555 107.04C681.365 104.463 678.125 100.916 675.837 96.3974C673.583 91.8436 672.456 86.6016 672.456 80.6711C672.456 74.7054 673.618 69.4633 675.942 64.9449C678.266 60.3912 681.523 56.8612 685.713 54.3549C689.903 51.8133 694.797 50.5425 700.396 50.5425C706.1 50.5425 711.047 51.8309 715.237 54.4078C719.427 56.9847 722.666 60.5324 724.955 65.0508C727.243 69.5692 728.387 74.776 728.387 80.6711C728.387 86.6369 727.226 91.8966 724.902 96.4503C722.613 100.969 719.374 104.516 715.184 107.093C710.994 109.635 706.064 110.906 700.396 110.906ZM700.396 100.475C705.853 100.475 709.92 98.6389 712.596 94.9677C715.307 91.2612 716.663 86.4957 716.663 80.6711C716.663 74.7054 715.289 69.9399 712.543 66.3746C709.832 62.774 705.783 60.9737 700.396 60.9737C696.699 60.9737 693.653 61.8209 691.259 63.5153C688.864 65.1744 687.086 67.4865 685.924 70.4517C684.762 73.3817 684.181 76.7881 684.181 80.6711C684.181 86.6722 685.555 91.473 688.301 95.0736C691.047 98.6742 695.079 100.475 700.396 100.475Z" fill="currentColor"/>
<path d="M736.825 109.317V52.131H746.648V66.0039L745.275 64.2036C745.979 62.368 746.895 60.6913 748.021 59.1734C749.148 57.6201 750.451 56.3493 751.93 55.3609C753.373 54.3019 754.975 53.49 756.736 52.9252C758.532 52.3251 760.363 51.9721 762.229 51.8662C764.095 51.725 765.891 51.8133 767.616 52.131V62.5092C765.75 62.015 763.672 61.8738 761.384 62.0856C759.13 62.2974 757.053 63.0211 755.151 64.2566C753.356 65.4215 751.93 66.8335 750.873 68.4926C749.852 70.1517 749.113 72.005 748.655 74.0524C748.198 76.0645 747.969 78.2001 747.969 80.4593V109.317H736.825Z" fill="currentColor"/>
<path d="M788.963 110.906C784.738 110.906 781.199 110.129 778.347 108.576C775.495 106.987 773.33 104.905 771.851 102.328C770.407 99.7156 769.685 96.8563 769.685 93.7499C769.685 90.8552 770.196 88.3136 771.217 86.125C772.238 83.9364 773.752 82.0831 775.759 80.5652C777.766 79.012 780.231 77.7589 783.153 76.8058C785.688 76.0645 788.558 75.4114 791.762 74.8466C794.966 74.2818 798.329 73.7523 801.85 73.2581C805.406 72.7639 808.927 72.2697 812.413 71.7755L808.399 73.9994C808.469 69.5163 807.519 66.1981 805.547 64.0448C803.61 61.8562 800.265 60.7619 795.512 60.7619C792.519 60.7619 789.773 61.4679 787.273 62.8799C784.773 64.2566 783.03 66.5511 782.044 69.7634L771.745 66.5864C773.154 61.6797 775.83 57.779 779.773 54.8844C783.752 51.9898 789.033 50.5425 795.618 50.5425C800.723 50.5425 805.159 51.425 808.927 53.19C812.73 54.9197 815.511 57.6731 817.272 61.4502C818.187 63.3211 818.751 65.2979 818.962 67.3806C819.173 69.4633 819.279 71.7049 819.279 74.1053V109.317H809.508V96.2385L811.409 97.9329C809.05 102.31 806.04 105.575 802.378 107.729C798.751 109.847 794.28 110.906 788.963 110.906ZM790.917 101.851C794.051 101.851 796.744 101.304 798.998 100.21C801.251 99.0802 803.065 97.6505 804.438 95.9208C805.811 94.1911 806.709 92.3908 807.131 90.5199C807.73 88.8255 808.064 86.9193 808.135 84.8013C808.24 82.6833 808.293 80.9888 808.293 79.718L811.885 81.0418C808.399 81.5713 805.23 82.0479 802.378 82.4715C799.526 82.8951 796.938 83.3187 794.614 83.7423C792.325 84.1306 790.283 84.6071 788.488 85.1719C786.974 85.7014 785.618 86.3368 784.421 87.0781C783.259 87.8194 782.326 88.7196 781.622 89.7786C780.953 90.8376 780.618 92.126 780.618 93.644C780.618 95.1266 780.988 96.5033 781.727 97.7741C782.467 99.0096 783.593 99.998 785.107 100.739C786.621 101.481 788.558 101.851 790.917 101.851Z" fill="currentColor"/>
<path d="M862.464 109.317C858.872 110.023 855.352 110.323 851.901 110.217C848.45 110.111 845.37 109.441 842.658 108.205C839.947 106.97 837.905 105.028 836.532 102.381C835.299 100.016 834.63 97.6152 834.525 95.1795C834.454 92.7085 834.419 89.9198 834.419 86.8134V36.2459H845.51V86.2839C845.51 88.5784 845.528 90.5728 845.563 92.2672C845.634 93.9617 846.003 95.3913 846.672 96.5562C847.94 98.7448 849.947 99.998 852.693 100.316C855.475 100.598 858.732 100.475 862.464 99.945V109.317ZM823.487 61.0266V52.131H862.464V61.0266H823.487Z" fill="currentColor"/>
<path d="M872.378 42.7588V32.0099H883.416V42.7588H872.378ZM872.378 109.317V52.131H883.416V109.317H872.378Z" fill="currentColor"/>
<path d="M920.877 110.906C915.173 110.906 910.226 109.617 906.036 107.04C901.846 104.463 898.607 100.916 896.318 96.3974C894.065 91.8436 892.938 86.6016 892.938 80.6711C892.938 74.7054 894.1 69.4633 896.424 64.9449C898.748 60.3912 902.005 56.8612 906.195 54.3549C910.385 51.8133 915.279 50.5425 920.877 50.5425C926.581 50.5425 931.528 51.8309 935.718 54.4078C939.908 56.9847 943.148 60.5324 945.436 65.0508C947.725 69.5692 948.869 74.776 948.869 80.6711C948.869 86.6369 947.707 91.8966 945.383 96.4503C943.095 100.969 939.855 104.516 935.665 107.093C931.475 109.635 926.546 110.906 920.877 110.906ZM920.877 100.475C926.335 100.475 930.402 98.6389 933.078 94.9677C935.789 91.2612 937.144 86.4957 937.144 80.6711C937.144 74.7054 935.771 69.9399 933.025 66.3746C930.314 62.774 926.264 60.9737 920.877 60.9737C917.18 60.9737 914.135 61.8209 911.74 63.5153C909.346 65.1744 907.568 67.4865 906.406 70.4517C905.244 73.3817 904.663 76.7881 904.663 80.6711C904.663 86.6722 906.036 91.473 908.783 95.0736C911.529 98.6742 915.561 100.475 920.877 100.475Z" fill="currentColor"/>
<path d="M997.34 109.317V81.2006C997.34 78.9767 997.146 76.6999 996.759 74.3701C996.407 72.005 995.703 69.8163 994.646 67.8042C993.625 65.7921 992.164 64.1683 990.263 62.9328C988.397 61.6973 985.95 61.0796 982.922 61.0796C980.95 61.0796 979.084 61.4149 977.323 62.0856C975.563 62.721 974.013 63.7624 972.675 65.2097C971.373 66.657 970.334 68.5632 969.559 70.9283C968.82 73.2934 968.45 76.1704 968.45 79.5592L961.584 76.9646C961.584 71.7755 962.553 67.2041 964.489 63.2505C966.426 59.2616 969.207 56.1552 972.834 53.9313C976.461 51.7074 980.844 50.5954 985.985 50.5954C989.928 50.5954 993.238 51.2308 995.914 52.5016C998.59 53.7724 1000.76 55.4492 1002.41 57.5319C1004.1 59.5793 1005.39 61.8209 1006.27 64.2566C1007.15 66.6923 1007.74 69.075 1008.06 71.4049C1008.38 73.7347 1008.54 75.7821 1008.54 77.5471V109.317H997.34ZM957.253 109.317V52.131H967.13V68.6514H968.45V109.317H957.253Z" fill="currentColor"/>
<path d="M1040.94 110.853C1034 110.853 1028.35 109.317 1023.98 106.246C1019.62 103.175 1016.94 98.8507 1015.96 93.2733L1027.26 91.5259C1027.96 94.4912 1029.58 96.8386 1032.12 98.5683C1034.69 100.263 1037.87 101.11 1041.68 101.11C1045.13 101.11 1047.82 100.404 1049.76 98.9919C1051.73 97.5799 1052.71 95.6384 1052.71 93.1674C1052.71 91.7201 1052.36 90.5552 1051.66 89.6727C1050.99 88.7549 1049.56 87.89 1047.38 87.0781C1045.2 86.2662 1041.87 85.2602 1037.4 84.06C1032.5 82.7892 1028.61 81.4301 1025.73 79.9828C1022.87 78.5002 1020.83 76.7881 1019.6 74.8466C1018.4 72.8698 1017.8 70.487 1017.8 67.6983C1017.8 64.2389 1018.72 61.2208 1020.55 58.6438C1022.38 56.0669 1024.95 54.0725 1028.26 52.6605C1031.61 51.2485 1035.51 50.5425 1039.99 50.5425C1044.35 50.5425 1048.24 51.2308 1051.66 52.6075C1055.07 53.9842 1057.84 55.9434 1059.95 58.485C1062.06 60.9913 1063.33 63.9389 1063.75 67.3277L1052.45 69.3927C1052.06 66.6393 1050.78 64.4684 1048.6 62.8799C1046.41 61.2914 1043.58 60.4265 1040.09 60.2853C1036.75 60.1441 1034.04 60.7089 1031.96 61.9797C1029.88 63.2152 1028.84 64.9273 1028.84 67.1159C1028.84 68.3867 1029.23 69.4633 1030 70.3458C1030.81 71.2284 1032.36 72.0756 1034.65 72.8875C1036.94 73.6994 1040.32 74.6701 1044.79 75.7997C1049.58 77.0352 1053.38 78.4119 1056.2 79.9298C1059.02 81.4124 1061.02 83.1951 1062.22 85.2778C1063.45 87.3252 1064.07 89.8139 1064.07 92.7438C1064.07 98.3918 1062.01 102.822 1057.89 106.034C1053.81 109.247 1048.16 110.853 1040.94 110.853Z" fill="currentColor"/>
<path d="M1121.67 110.906C1116.57 110.906 1111.87 110.023 1107.57 108.258C1103.28 106.458 1099.54 103.846 1096.37 100.422C1093.21 96.9975 1090.74 92.832 1088.98 87.9253C1087.22 83.0186 1086.34 77.4412 1086.34 71.1931C1086.34 62.9681 1087.84 55.9081 1090.83 50.013C1093.82 44.0825 1097.98 39.5288 1103.29 36.3518C1108.61 33.1395 1114.74 31.5333 1121.67 31.5333C1130.62 31.5333 1137.75 33.616 1143.06 37.7815C1148.41 41.9469 1152.06 47.7008 1154 55.0432L1142.8 57.0553C1141.25 52.5016 1138.75 48.8657 1135.3 46.1476C1131.85 43.4295 1127.52 42.0528 1122.31 42.0175C1116.92 41.9822 1112.43 43.1824 1108.84 45.6181C1105.28 48.0538 1102.61 51.4779 1100.81 55.8904C1099.02 60.2677 1098.1 65.3685 1098.06 71.1931C1098.03 77.0176 1098.91 82.1185 1100.71 86.4957C1102.5 90.8376 1105.19 94.2264 1108.79 96.6621C1112.41 99.0978 1116.92 100.333 1122.31 100.369C1126.64 100.439 1130.35 99.645 1133.45 97.9859C1136.58 96.2915 1139.07 93.8204 1140.9 90.5728C1142.73 87.3252 1143.91 83.3363 1144.44 78.6061H1129.65V69.7104H1156.16C1156.23 70.3458 1156.28 71.1931 1156.32 72.2521C1156.35 73.2758 1156.37 73.9288 1156.37 74.2112C1156.37 81.2712 1155.02 87.5723 1152.31 93.1144C1149.59 98.6566 1145.65 103.016 1140.48 106.193C1135.3 109.335 1129.03 110.906 1121.67 110.906Z" fill="currentColor"/>
<path d="M1163.73 109.317V52.131H1173.55V66.0039L1172.18 64.2036C1172.88 62.368 1173.8 60.6913 1174.93 59.1734C1176.05 57.6201 1177.36 56.3493 1178.84 55.3609C1180.28 54.3019 1181.88 53.49 1183.64 52.9252C1185.44 52.3251 1187.27 51.9721 1189.13 51.8662C1191 51.725 1192.8 51.8133 1194.52 52.131V62.5092C1192.66 62.015 1190.58 61.8738 1188.29 62.0856C1186.04 62.2974 1183.96 63.0211 1182.06 64.2566C1180.26 65.4215 1178.84 66.8335 1177.78 68.4926C1176.76 70.1517 1176.02 72.005 1175.56 74.0524C1175.1 76.0645 1174.87 78.2001 1174.87 80.4593V109.317H1163.73Z" fill="currentColor"/>
<path d="M1225.15 110.906C1219.44 110.906 1214.5 109.617 1210.31 107.04C1206.12 104.463 1202.88 100.916 1200.59 96.3974C1198.34 91.8436 1197.21 86.6016 1197.21 80.6711C1197.21 74.7054 1198.37 69.4633 1200.7 64.9449C1203.02 60.3912 1206.28 56.8612 1210.47 54.3549C1214.66 51.8133 1219.55 50.5425 1225.15 50.5425C1230.85 50.5425 1235.8 51.8309 1239.99 54.4078C1244.18 56.9847 1247.42 60.5324 1249.71 65.0508C1252 69.5692 1253.14 74.776 1253.14 80.6711C1253.14 86.6369 1251.98 91.8966 1249.66 96.4503C1247.37 100.969 1244.13 104.516 1239.94 107.093C1235.75 109.635 1230.82 110.906 1225.15 110.906ZM1225.15 100.475C1230.61 100.475 1234.67 98.6389 1237.35 94.9677C1240.06 91.2612 1241.42 86.4957 1241.42 80.6711C1241.42 74.7054 1240.04 69.9399 1237.3 66.3746C1234.59 62.774 1230.54 60.9737 1225.15 60.9737C1221.45 60.9737 1218.41 61.8209 1216.01 63.5153C1213.62 65.1744 1211.84 67.4865 1210.68 70.4517C1209.52 73.3817 1208.93 76.7881 1208.93 80.6711C1208.93 86.6722 1210.31 91.473 1213.05 95.0736C1215.8 98.6742 1219.83 100.475 1225.15 100.475Z" fill="currentColor"/>
<path d="M1283.07 110.853C1279.13 110.853 1275.82 110.217 1273.14 108.947C1270.47 107.676 1268.29 106.017 1266.6 103.969C1264.94 101.887 1263.67 99.6273 1262.79 97.1916C1261.91 94.7559 1261.31 92.3731 1261 90.0433C1260.68 87.7135 1260.52 85.6661 1260.52 83.9011V52.131H1271.72V80.2475C1271.72 82.4715 1271.89 84.766 1272.25 87.1311C1272.63 89.4609 1273.34 91.6318 1274.36 93.644C1275.42 95.6561 1276.88 97.2799 1278.74 98.5154C1280.64 99.7509 1283.11 100.369 1286.14 100.369C1288.11 100.369 1289.97 100.051 1291.74 99.4155C1293.5 98.7448 1295.03 97.6858 1296.33 96.2385C1297.67 94.7912 1298.71 92.885 1299.45 90.5199C1300.22 88.1548 1300.61 85.2778 1300.61 81.889L1307.47 84.4836C1307.47 89.6727 1306.51 94.2617 1304.57 98.2506C1302.63 102.204 1299.85 105.293 1296.22 107.517C1292.6 109.741 1288.21 110.853 1283.07 110.853ZM1301.93 109.317V92.7967H1300.61V52.131H1311.75V109.317H1301.93Z" fill="currentColor"/>
<path d="M1350.17 110.906C1344.72 110.906 1340.14 109.582 1336.44 106.934C1332.74 104.252 1329.95 100.633 1328.04 96.0797C1326.14 91.5259 1325.19 86.3898 1325.19 80.6711C1325.19 74.9525 1326.13 69.8163 1327.99 65.2626C1329.89 60.7089 1332.67 57.1259 1336.34 54.5137C1340.03 51.8662 1344.57 50.5425 1349.96 50.5425C1355.31 50.5425 1359.93 51.8662 1363.8 54.5137C1367.71 57.1259 1370.72 60.7089 1372.83 65.2626C1374.94 69.781 1376 74.9172 1376 80.6711C1376 86.3898 1374.94 91.5436 1372.83 96.1326C1370.75 100.686 1367.78 104.287 1363.91 106.934C1360.07 109.582 1355.49 110.906 1350.17 110.906ZM1323.34 134.733V52.131H1333.17V93.2733H1334.43V134.733H1323.34ZM1348.64 100.898C1352.16 100.898 1355.07 99.998 1357.36 98.1977C1359.68 96.3974 1361.41 93.9793 1362.53 90.9435C1363.69 87.8724 1364.28 84.4483 1364.28 80.6711C1364.28 76.9293 1363.69 73.5405 1362.53 70.5047C1361.41 67.4689 1359.66 65.0508 1357.3 63.2505C1354.94 61.4502 1351.93 60.5501 1348.27 60.5501C1344.82 60.5501 1341.97 61.3973 1339.72 63.0917C1337.5 64.7861 1335.84 67.1512 1334.75 70.187C1333.7 73.2228 1333.17 76.7175 1333.17 80.6711C1333.17 84.6248 1333.7 88.1195 1334.75 91.1553C1335.81 94.1911 1337.48 96.5739 1339.77 98.3036C1342.06 100.033 1345.02 100.898 1348.64 100.898Z" fill="currentColor"/>
</svg>
